<svg width="252" height="65" viewBox="0 0 252 65" fill="none" xmlns="http://www.w3.org/2000/svg">
<path d="M93.5806 44C93.2606 44 93.0046 43.9253 92.8126 43.776C92.642 43.6267 92.5033 43.424 92.3966 43.168L85.2606 22.592C85.218 22.464 85.1966 22.3467 85.1966 22.24C85.1966 22.0693 85.2606 21.92 85.3886 21.792C85.5166 21.664 85.666 21.6 85.8366 21.6H87.5006C87.7566 21.6 87.9486 21.6747 88.0766 21.824C88.226 21.952 88.3113 22.0693 88.3326 22.176L94.6046 40.32L100.877 22.176C100.919 22.0693 101.005 21.952 101.133 21.824C101.261 21.6747 101.453 21.6 101.709 21.6H103.373C103.543 21.6 103.693 21.664 103.821 21.792C103.97 21.92 104.045 22.0693 104.045 22.24C104.045 22.3467 104.023 22.464 103.981 22.592L96.8126 43.168C96.7273 43.424 96.5886 43.6267 96.3966 43.776C96.226 43.9253 95.9806 44 95.6606 44H93.5806ZM104.796 44C104.625 44 104.476 43.936 104.348 43.808C104.22 43.68 104.156 43.5307 104.156 43.36C104.156 43.2533 104.166 43.136 104.188 43.008L112.124 22.304C112.209 22.0907 112.326 21.92 112.476 21.792C112.625 21.664 112.849 21.6 113.148 21.6H115.324C115.601 21.6 115.814 21.664 115.964 21.792C116.134 21.92 116.262 22.0907 116.348 22.304L124.252 43.008C124.294 43.136 124.316 43.2533 124.316 43.36C124.316 43.5307 124.252 43.68 124.124 43.808C123.996 43.936 123.846 44 123.676 44H122.044C121.788 44 121.596 43.936 121.468 43.808C121.361 43.68 121.286 43.5627 121.244 43.456L119.484 38.912H108.988L107.228 43.456C107.206 43.5627 107.132 43.68 107.004 43.808C106.876 43.936 106.684 44 106.428 44H104.796ZM109.916 36.16H118.556L114.236 24.8L109.916 36.16ZM135.363 44.32C133.55 44.32 131.992 44.0107 130.691 43.392C129.39 42.752 128.387 41.7813 127.683 40.48C126.979 39.1573 126.584 37.504 126.499 35.52C126.478 34.5813 126.467 33.6853 126.467 32.832C126.467 31.9573 126.478 31.0507 126.499 30.112C126.584 28.1493 126.99 26.5173 127.715 25.216C128.462 23.8933 129.486 22.912 130.787 22.272C132.11 21.6107 133.635 21.28 135.363 21.28C137.112 21.28 138.638 21.6107 139.939 22.272C141.262 22.912 142.296 23.8933 143.043 25.216C143.79 26.5173 144.195 28.1493 144.259 30.112C144.302 31.0507 144.323 31.9573 144.323 32.832C144.323 33.6853 144.302 34.5813 144.259 35.52C144.195 37.504 143.8 39.1573 143.075 40.48C142.371 41.7813 141.368 42.752 140.067 43.392C138.766 44.0107 137.198 44.32 135.363 44.32ZM135.363 41.6C137.006 41.6 138.339 41.1093 139.363 40.128C140.408 39.1467 140.974 37.5573 141.059 35.36C141.102 34.4 141.123 33.5467 141.123 32.8C141.123 32.032 141.102 31.1787 141.059 30.24C141.016 28.768 140.739 27.5733 140.227 26.656C139.736 25.7387 139.075 25.0667 138.243 24.64C137.411 24.2133 136.451 24 135.363 24C134.318 24 133.379 24.2133 132.547 24.64C131.715 25.0667 131.043 25.7387 130.531 26.656C130.04 27.5733 129.763 28.768 129.699 30.24C129.678 31.1787 129.667 32.032 129.667 32.8C129.667 33.5467 129.678 34.4 129.699 35.36C129.784 37.5573 130.35 39.1467 131.395 40.128C132.44 41.1093 133.763 41.6 135.363 41.6ZM157.567 44C157.354 44 157.172 43.936 157.023 43.808C156.895 43.6587 156.831 43.4773 156.831 43.264V22.368C156.831 22.1333 156.895 21.952 157.023 21.824C157.172 21.6747 157.354 21.6 157.567 21.6H159.167C159.423 21.6 159.615 21.664 159.743 21.792C159.871 21.92 159.946 22.0267 159.967 22.112L166.751 35.04L173.567 22.112C173.61 22.0267 173.684 21.92 173.791 21.792C173.919 21.664 174.111 21.6 174.367 21.6H175.935C176.17 21.6 176.351 21.6747 176.479 21.824C176.628 21.952 176.703 22.1333 176.703 22.368V43.264C176.703 43.4773 176.628 43.6587 176.479 43.808C176.351 43.936 176.17 44 175.935 44H174.367C174.154 44 173.972 43.936 173.823 43.808C173.695 43.6587 173.631 43.4773 173.631 43.264V27.52L168.287 37.952C168.202 38.1653 168.074 38.336 167.903 38.464C167.732 38.5707 167.519 38.624 167.263 38.624H166.271C165.994 38.624 165.77 38.5707 165.599 38.464C165.45 38.336 165.322 38.1653 165.215 37.952L159.871 27.52V43.264C159.871 43.4773 159.796 43.6587 159.647 43.808C159.519 43.936 159.348 44 159.135 44H157.567ZM190.685 44.32C188.893 44.32 187.346 44 186.045 43.36C184.765 42.72 183.773 41.7493 183.069 40.448C182.386 39.1253 182.045 37.4293 182.045 35.36V22.368C182.045 22.1333 182.109 21.952 182.237 21.824C182.365 21.6747 182.546 21.6 182.781 21.6H184.413C184.648 21.6 184.829 21.6747 184.957 21.824C185.106 21.952 185.181 22.1333 185.181 22.368V35.424C185.181 37.5147 185.672 39.0613 186.653 40.064C187.634 41.0667 188.978 41.568 190.685 41.568C192.37 41.568 193.704 41.0667 194.685 40.064C195.688 39.0613 196.189 37.5147 196.189 35.424V22.368C196.189 22.1333 196.253 21.952 196.381 21.824C196.53 21.6747 196.712 21.6 196.925 21.6H198.589C198.802 21.6 198.973 21.6747 199.101 21.824C199.25 21.952 199.325 22.1333 199.325 22.368V35.36C199.325 37.4293 198.973 39.1253 198.269 40.448C197.586 41.7493 196.605 42.72 195.325 43.36C194.045 44 192.498 44.32 190.685 44.32ZM211.875 44.32C210.019 44.32 208.461 44.0427 207.203 43.488C205.944 42.912 204.973 42.176 204.291 41.28C203.629 40.3627 203.277 39.392 203.235 38.368C203.235 38.1973 203.299 38.048 203.427 37.92C203.576 37.7707 203.747 37.696 203.939 37.696H205.571C205.827 37.696 206.019 37.76 206.147 37.888C206.275 38.016 206.36 38.1653 206.403 38.336C206.509 38.848 206.765 39.36 207.171 39.872C207.597 40.3627 208.184 40.7787 208.931 41.12C209.699 41.44 210.68 41.6 211.875 41.6C213.709 41.6 215.053 41.28 215.907 40.64C216.781 39.9787 217.219 39.104 217.219 38.016C217.219 37.2693 216.984 36.672 216.515 36.224C216.067 35.7547 215.373 35.3387 214.435 34.976C213.496 34.6133 212.28 34.2187 210.787 33.792C209.229 33.344 207.939 32.8533 206.915 32.32C205.891 31.7867 205.123 31.1253 204.611 30.336C204.12 29.5467 203.875 28.544 203.875 27.328C203.875 26.176 204.184 25.152 204.803 24.256C205.421 23.3387 206.307 22.6133 207.459 22.08C208.632 21.5467 210.051 21.28 211.715 21.28C213.037 21.28 214.189 21.4613 215.171 21.824C216.173 22.1653 217.005 22.6347 217.667 23.232C218.328 23.808 218.829 24.4373 219.171 25.12C219.512 25.7813 219.693 26.432 219.715 27.072C219.715 27.2213 219.661 27.3707 219.555 27.52C219.448 27.648 219.277 27.712 219.043 27.712H217.347C217.197 27.712 217.037 27.6693 216.867 27.584C216.717 27.4987 216.6 27.3387 216.515 27.104C216.387 26.2293 215.896 25.4933 215.043 24.896C214.189 24.2987 213.08 24 211.715 24C210.328 24 209.197 24.2667 208.323 24.8C207.469 25.3333 207.043 26.1653 207.043 27.296C207.043 28.0213 207.245 28.6293 207.651 29.12C208.056 29.5893 208.696 30.0053 209.571 30.368C210.445 30.7307 211.587 31.1147 212.995 31.52C214.701 31.9893 216.099 32.4907 217.187 33.024C218.275 33.536 219.075 34.1867 219.587 34.976C220.12 35.744 220.387 36.736 220.387 37.952C220.387 39.296 220.035 40.448 219.331 41.408C218.627 42.3467 217.635 43.072 216.355 43.584C215.096 44.0747 213.603 44.32 211.875 44.32ZM225.317 44C225.082 44 224.901 43.936 224.773 43.808C224.645 43.6587 224.581 43.4773 224.581 43.264V22.336C224.581 22.1227 224.645 21.952 224.773 21.824C224.901 21.6747 225.082 21.6 225.317 21.6H227.013C227.226 21.6 227.397 21.6747 227.525 21.824C227.674 21.952 227.749 22.1227 227.749 22.336V43.264C227.749 43.4773 227.674 43.6587 227.525 43.808C227.397 43.936 227.226 44 227.013 44H225.317ZM241.395 44.32C239.432 44.32 237.8 43.9573 236.499 43.232C235.219 42.5067 234.248 41.4933 233.587 40.192C232.926 38.8907 232.563 37.376 232.499 35.648C232.478 34.7733 232.467 33.8347 232.467 32.832C232.467 31.8293 232.478 30.8693 232.499 29.952C232.563 28.224 232.926 26.7093 233.587 25.408C234.248 24.1067 235.219 23.0933 236.499 22.368C237.8 21.6427 239.432 21.28 241.395 21.28C242.867 21.28 244.158 21.4827 245.267 21.888C246.376 22.2933 247.294 22.8373 248.019 23.52C248.766 24.2027 249.331 24.9707 249.715 25.824C250.099 26.656 250.312 27.52 250.355 28.416C250.376 28.608 250.312 28.768 250.163 28.896C250.035 29.024 249.875 29.088 249.683 29.088H247.923C247.731 29.088 247.56 29.0347 247.411 28.928C247.283 28.8213 247.187 28.6293 247.123 28.352C246.76 26.688 246.078 25.5467 245.075 24.928C244.094 24.3093 242.856 24 241.363 24C239.656 24 238.302 24.4907 237.299 25.472C236.296 26.432 235.752 27.9787 235.667 30.112C235.603 31.8613 235.603 33.6533 235.667 35.488C235.752 37.6213 236.296 39.1787 237.299 40.16C238.302 41.12 239.656 41.6 241.363 41.6C242.856 41.6 244.094 41.2907 245.075 40.672C246.078 40.0533 246.76 38.912 247.123 37.248C247.187 36.9707 247.283 36.7787 247.411 36.672C247.56 36.5653 247.731 36.512 247.923 36.512H249.683C249.875 36.512 250.035 36.576 250.163 36.704C250.312 36.832 250.376 36.992 250.355 37.184C250.312 38.08 250.099 38.9547 249.715 39.808C249.331 40.64 248.766 41.3973 248.019 42.08C247.294 42.7627 246.376 43.3067 245.267 43.712C244.158 44.1173 242.867 44.32 241.395 44.32Z" fill="white"/>
<path d="M47 41C46.2044 41 45.4413 40.7098 44.8787 40.1933C44.3161 39.6767 44 38.9761 44 38.2456V26.7544C44 26.0239 44.3161 25.3233 44.8787 24.8067C45.4413 24.2902 46.2044 24 47 24V24C47.7956 24 48.5587 24.2902 49.1213 24.8067C49.6839 25.3233 50 26.0239 50 26.7544V38.2456C50 38.9761 49.6839 39.6767 49.1213 40.1933C48.5587 40.7098 47.7956 41 47 41V41Z" fill="white"/>
<path d="M14.5016 46C15.1642 46 15.7997 45.7089 16.2682 45.1907C16.7368 44.6726 17 43.9698 17 43.237V21.763C17 21.0302 16.7368 20.3274 16.2682 19.8093C15.7997 19.2911 15.1642 19 14.5016 19V19C13.8387 19 13.2029 19.291 12.7338 19.809C12.2648 20.3271 12.0008 21.0298 12 21.763V43.237C12.0008 43.9701 12.2648 44.6729 12.7338 45.191C13.2029 45.709 13.8387 46 14.5016 46Z" fill="white"/>
<path d="M0 35.3513C0 36.8141 1.34315 38 3 38C4.65685 38 6 36.8141 6 35.3513L6 29.6487C6 28.1859 4.65685 27 3 27C1.34315 27 0 28.1859 0 29.6487L0 35.3513Z" fill="white"/>
<path d="M35.7237 9.41662H34.8855C34.2824 9.41755 33.7043 9.66549 33.2782 10.106C32.852 10.5465 32.6127 11.1436 32.6127 11.7661V16.2681C32.6118 16.8462 32.3889 17.4003 31.9929 17.8091C31.5969 18.2178 31.0601 18.4479 30.5 18.4488V18.4488C29.94 18.4479 29.4032 18.2178 29.0072 17.8091C28.6112 17.4003 28.3883 16.8462 28.3874 16.2681V2.84297C28.395 2.10979 28.125 1.4025 27.635 0.871706C27.1449 0.340908 26.4735 0.0285331 25.7636 0.00107924C25.404 -0.00927513 25.0461 0.0549641 24.711 0.190002C24.3758 0.32504 24.0704 0.528131 23.8127 0.787233C23.555 1.04633 23.3503 1.35618 23.2107 1.69842C23.0712 2.04066 22.9996 2.40834 23.0002 2.77966V62.157C22.9925 62.8896 23.262 63.5964 23.7514 64.1271C24.2407 64.6578 24.9113 64.9706 25.6205 64.9989C25.9803 65.0093 26.3384 64.945 26.6737 64.81C27.009 64.675 27.3147 64.472 27.5726 64.213C27.8306 63.9539 28.0356 63.6441 28.1756 63.3018C28.3155 62.9596 28.3875 62.5918 28.3874 62.2203V48.7319C28.3883 48.1538 28.6112 47.5997 29.0072 47.1909C29.4032 46.7822 29.94 46.5521 30.5 46.5512C31.0601 46.5521 31.5969 46.7822 31.9929 47.1909C32.3889 47.5997 32.6118 48.1538 32.6127 48.7319V53.2515C32.6127 53.874 32.852 54.4711 33.2782 54.9116C33.7043 55.3521 34.2824 55.6 34.8855 55.601H35.7237C36.0226 55.601 36.3186 55.5402 36.5948 55.4221C36.871 55.304 37.1219 55.131 37.3333 54.9128C37.5446 54.6946 37.7123 54.4356 37.8267 54.1506C37.9411 53.8655 37.9999 53.56 37.9999 53.2515V11.7837C38.0022 11.4737 37.945 11.1663 37.8316 10.8792C37.7182 10.5921 37.5509 10.331 37.3393 10.111C37.1277 9.89094 36.876 9.71631 36.5987 9.59714C36.3215 9.47797 36.0241 9.41661 35.7237 9.41662ZM32.9296 39.8545C32.9296 40.3656 32.7329 40.8559 32.3827 41.2174C32.0325 41.5788 31.5575 41.7819 31.0623 41.7819V41.7819C30.567 41.7819 30.0921 41.5788 29.7419 41.2174C29.3917 40.8559 29.195 40.3656 29.195 39.8545V24.4667C29.195 23.9555 29.3917 23.4653 29.7419 23.1038C30.0921 22.7424 30.567 22.5393 31.0623 22.5393V22.5393C31.5575 22.5393 32.0325 22.7424 32.3827 23.1038C32.7329 23.4653 32.9296 23.9555 32.9296 24.4667V39.8545Z" fill="white"/>
<path d="M59 32.5C59 33.163 58.7366 33.7989 58.2678 34.2678C57.7989 34.7366 57.163 35 56.5 35C55.837 35 55.2011 34.7366 54.7322 34.2678C54.2634 33.7989 54 33.163 54 32.5C54 31.837 54.2634 31.2011 54.7322 30.7322C55.2011 30.2634 55.837 30 56.5 30C57.163 30 57.7989 30.2634 58.2678 30.7322C58.7366 31.2011 59 31.837 59 32.5Z" fill="white"/>
</svg>
