<svg width="59" height="45" viewBox="0 0 59 45" fill="none" xmlns="http://www.w3.org/2000/svg">
<path d="M47 28.3846C46.2044 28.3846 45.4413 28.1837 44.8787 27.8261C44.3161 27.4685 44 26.9834 44 26.4777V18.5222C44 18.0165 44.3161 17.5315 44.8787 17.1739C45.4413 16.8163 46.2044 16.6154 47 16.6154V16.6154C47.7956 16.6154 48.5587 16.8163 49.1213 17.1739C49.6839 17.5315 50 18.0165 50 18.5222V26.4777C50 26.9834 49.6839 27.4685 49.1213 27.8261C48.5587 28.1837 47.7956 28.3846 47 28.3846V28.3846Z" fill="white"/>
<path d="M14.5016 31.8461C15.1642 31.8461 15.7997 31.6446 16.2682 31.2859C16.7368 30.9271 17 30.4406 17 29.9333V15.0666C17 14.5593 16.7368 14.0728 16.2682 13.7141C15.7997 13.3553 15.1642 13.1538 14.5016 13.1538V13.1538C13.8387 13.1538 13.2029 13.3553 12.7338 13.7139C12.2648 14.0726 12.0008 14.5591 12 15.0666V29.9333C12.0008 30.4408 12.2648 30.9274 12.7338 31.286C13.2029 31.6447 13.8387 31.8461 14.5016 31.8461Z" fill="white"/>
<path d="M0 24.474C0 25.4868 1.34315 26.3077 3 26.3077C4.65685 26.3077 6 25.4868 6 24.474L6 20.5261C6 19.5133 4.65685 18.6924 3 18.6924C1.34315 18.6924 0 19.5133 0 20.5261L0 24.474Z" fill="white"/>
<path d="M35.7237 6.5192H34.8855C34.2824 6.51984 33.7043 6.6915 33.2782 6.99647C32.852 7.30144 32.6127 7.71479 32.6127 8.14576V11.2625C32.6118 11.6627 32.3889 12.0464 31.9929 12.3293C31.5969 12.6123 31.0601 12.7716 30.5 12.7722V12.7722C29.94 12.7716 29.4032 12.6123 29.0072 12.3293C28.6112 12.0464 28.3883 11.6627 28.3874 11.2625V1.96821C28.395 1.46062 28.125 0.970965 27.635 0.603489C27.1449 0.236013 26.4735 0.0197537 25.7636 0.000747169C25.404 -0.00642125 25.0461 0.0380521 24.711 0.13154C24.3758 0.225028 24.0704 0.365629 23.8127 0.545007C23.555 0.724385 23.3503 0.938894 23.2107 1.17583C23.0712 1.41277 22.9996 1.66731 23.0002 1.92438V43.0318C22.9925 43.539 23.262 44.0283 23.7514 44.3957C24.2407 44.7631 24.9113 44.9796 25.6205 44.9993C25.9803 45.0064 26.3384 44.962 26.6737 44.8685C27.009 44.775 27.3147 44.6345 27.5726 44.4551C27.8306 44.2758 28.0356 44.0613 28.1756 43.8243C28.3155 43.5874 28.3875 43.3328 28.3874 43.0756V33.7375C28.3883 33.3373 28.6112 32.9536 29.0072 32.6707C29.4032 32.3877 29.94 32.2284 30.5 32.2278C31.0601 32.2284 31.5969 32.3877 31.9929 32.6707C32.3889 32.9536 32.6118 33.3373 32.6127 33.7375V36.8664C32.6127 37.2974 32.852 37.7107 33.2782 38.0157C33.7043 38.3207 34.2824 38.4923 34.8855 38.493H35.7237C36.0226 38.493 36.3186 38.4509 36.5948 38.3692C36.871 38.2874 37.1219 38.1676 37.3333 38.0166C37.5446 37.8655 37.7123 37.6862 37.8267 37.4889C37.9411 37.2915 37.9999 37.08 37.9999 36.8664V8.15794C38.0022 7.94332 37.945 7.7305 37.8316 7.53174C37.7182 7.33299 37.5509 7.15224 37.3393 6.99991C37.1277 6.84757 36.876 6.72667 36.5987 6.64417C36.3215 6.56167 36.0241 6.51919 35.7237 6.5192ZM32.9296 27.5916C32.9296 27.9455 32.7329 28.2849 32.3827 28.5351C32.0325 28.7853 31.5575 28.9259 31.0623 28.9259V28.9259C30.567 28.9259 30.0921 28.7853 29.7419 28.5351C29.3917 28.2849 29.195 27.9455 29.195 27.5916V16.9385C29.195 16.5846 29.3917 16.2452 29.7419 15.995C30.0921 15.7447 30.567 15.6041 31.0623 15.6041V15.6041C31.5575 15.6041 32.0325 15.7447 32.3827 15.995C32.7329 16.2452 32.9296 16.5846 32.9296 16.9385V27.5916Z" fill="white"/>
<path d="M59 22.5001C59 22.9591 58.7366 23.3993 58.2678 23.7239C57.7989 24.0485 57.163 24.2308 56.5 24.2308C55.837 24.2308 55.2011 24.0485 54.7322 23.7239C54.2634 23.3993 54 22.9591 54 22.5001C54 22.041 54.2634 21.6008 54.7322 21.2762C55.2011 20.9516 55.837 20.7693 56.5 20.7693C57.163 20.7693 57.7989 20.9516 58.2678 21.2762C58.7366 21.6008 59 22.041 59 22.5001Z" fill="white"/>
</svg>
